<svg width="832" height="601" viewBox="0 0 832 601" fill="none" xmlns="http://www.w3.org/2000/svg">
<rect width="832" height="601" fill="#1E1E1E"/>
<rect width="832" height="601" fill="white"/>
<rect x="56" y="91" width="723" height="411" fill="#B0CDDE"/>
<rect x="263" y="201" width="309" height="191" rx="95.5" fill="#D92424"/>
<path d="M400.332 286.376V311H398.136V299.228H384.852V311H382.656V286.376H384.852V297.176H398.136V286.376H400.332ZM414.504 311.36C413.16 311.36 411.936 311.132 410.832 310.676C409.728 310.22 408.78 309.584 407.988 308.768C407.22 307.928 406.62 306.944 406.188 305.816C405.756 304.688 405.54 303.452 405.54 302.108C405.54 300.764 405.756 299.528 406.188 298.4C406.62 297.248 407.22 296.252 407.988 295.412C408.78 294.572 409.728 293.912 410.832 293.432C411.936 292.952 413.16 292.712 414.504 292.712C415.848 292.712 417.06 292.952 418.14 293.432C419.244 293.888 420.18 294.536 420.948 295.376C421.74 296.192 422.352 297.176 422.784 298.328C423.216 299.456 423.432 300.68 423.432 302C423.432 303.344 423.216 304.592 422.784 305.744C422.352 306.896 421.74 307.892 420.948 308.732C420.18 309.548 419.244 310.196 418.14 310.676C417.06 311.132 415.848 311.36 414.504 311.36ZM414.504 294.584C413.448 294.584 412.5 294.764 411.66 295.124C410.82 295.484 410.088 295.988 409.464 296.636C408.864 297.284 408.396 298.064 408.06 298.976C407.748 299.888 407.592 300.896 407.592 302C407.592 303.128 407.748 304.16 408.06 305.096C408.396 306.008 408.864 306.788 409.464 307.436C410.088 308.084 410.82 308.588 411.66 308.948C412.5 309.308 413.448 309.488 414.504 309.488C415.536 309.488 416.472 309.308 417.312 308.948C418.176 308.564 418.908 308.048 419.508 307.4C420.108 306.728 420.564 305.936 420.876 305.024C421.212 304.088 421.38 303.056 421.38 301.928C421.38 300.824 421.212 299.828 420.876 298.94C420.564 298.028 420.108 297.248 419.508 296.6C418.908 295.952 418.176 295.46 417.312 295.124C416.472 294.764 415.536 294.584 414.504 294.584ZM428.281 284.864H430.261V305.852C430.261 306.812 430.381 307.64 430.621 308.336C430.861 309.032 431.221 309.632 431.701 310.136L430.477 311.324C430.021 311.012 429.649 310.64 429.361 310.208C429.073 309.776 428.845 309.32 428.677 308.84C428.533 308.36 428.425 307.868 428.353 307.364C428.305 306.86 428.281 306.356 428.281 305.852V284.864ZM441.245 311.36C440.429 311.36 439.661 311.252 438.941 311.036C438.245 310.82 437.633 310.496 437.105 310.064C436.601 309.632 436.205 309.092 435.917 308.444C435.629 307.796 435.485 307.052 435.485 306.212C435.485 305.204 435.701 304.364 436.133 303.692C436.589 303.02 437.177 302.48 437.897 302.072C438.617 301.64 439.421 301.34 440.309 301.172C441.221 301.004 442.145 300.92 443.081 300.92H446.573V298.904C446.573 297.416 446.273 296.324 445.673 295.628C445.073 294.932 444.125 294.584 442.829 294.584C441.869 294.584 440.897 294.788 439.913 295.196C438.929 295.604 438.125 296.048 437.501 296.528L436.529 295.016C437.225 294.392 438.137 293.852 439.265 293.396C440.417 292.94 441.605 292.712 442.829 292.712C444.845 292.712 446.297 293.228 447.185 294.26C448.097 295.268 448.553 296.684 448.553 298.508V305.816C448.553 307.664 449.021 309.092 449.957 310.1L448.733 311.288C448.229 310.904 447.833 310.472 447.545 309.992C447.257 309.488 447.029 308.96 446.861 308.408C446.405 309.32 445.709 310.04 444.773 310.568C443.837 311.096 442.661 311.36 441.245 311.36ZM441.245 309.488C441.965 309.488 442.637 309.392 443.261 309.2C443.885 308.984 444.437 308.684 444.917 308.3C445.421 307.916 445.817 307.436 446.105 306.86C446.393 306.284 446.549 305.624 446.573 304.88V302.756H443.081C442.409 302.756 441.737 302.804 441.065 302.9C440.417 302.972 439.829 303.14 439.301 303.404C438.773 303.644 438.341 303.992 438.005 304.448C437.693 304.904 437.537 305.492 437.537 306.212C437.537 307.412 437.861 308.264 438.509 308.768C439.157 309.248 440.069 309.488 441.245 309.488Z" fill="white"/>
</svg>
